<svg width="78" height="78" viewBox="0 0 78 78" fill="none" xmlns="http://www.w3.org/2000/svg">
<path d="M67.4891 0H10.5111C4.70639 0 0.000488281 4.70571 0.000488281 10.5107V67.489C0.000488281 73.2939 4.7062 77.9996 10.5111 77.9996H38.6124L38.6603 50.1268H31.4189C30.4779 50.1268 29.7141 49.3658 29.7104 48.4248L29.6757 39.4402C29.6721 38.494 30.4382 37.725 31.3844 37.725H38.6126V29.0436C38.6126 18.969 44.7656 13.4833 53.7528 13.4833H61.1275C62.0711 13.4833 62.8362 14.2482 62.8362 15.1919V22.7678C62.8362 23.7111 62.0717 24.4759 61.1285 24.4765L56.6027 24.4786C51.7152 24.4786 50.7688 26.8011 50.7688 30.2095V37.7252H61.5084C62.5317 37.7252 63.3256 38.6188 63.2051 39.635L62.1402 48.6196C62.0383 49.4794 61.3092 50.1272 60.4435 50.1272H50.8167L50.7688 78H67.4895C73.2942 78 77.9999 73.2943 77.9999 67.4895V10.5107C77.9997 4.70571 73.294 0 67.4891 0Z" fill="white"/>
</svg>
