<svg width="214" height="31" viewBox="0 0 214 31" fill="none" xmlns="http://www.w3.org/2000/svg">
<path d="M0.231534 0.90909H7.81676L15.8281 20.4545H16.169L24.1804 0.90909H31.7656V30H25.7997V11.0653H25.5582L18.0298 29.858H13.9673L6.43892 10.9943H6.19744V30H0.231534V0.90909ZM46.6626 30.4261C44.4183 30.4261 42.4865 29.9716 40.8672 29.0625C39.2573 28.1439 38.0168 26.8466 37.1456 25.1705C36.2744 23.4848 35.8388 21.4915 35.8388 19.1903C35.8388 16.946 36.2744 14.9763 37.1456 13.2812C38.0168 11.5862 39.2431 10.2652 40.8246 9.31818C42.4155 8.37121 44.281 7.89773 46.4212 7.89773C47.8606 7.89773 49.2005 8.12973 50.4411 8.59375C51.6911 9.0483 52.7801 9.73485 53.7081 10.6534C54.6456 11.572 55.3748 12.7273 55.8956 14.1193C56.4164 15.5019 56.6768 17.1212 56.6768 18.9773V20.6392H38.2536V16.8892H50.9808C50.9808 16.018 50.7914 15.2462 50.4126 14.5739C50.0339 13.9015 49.5083 13.3759 48.8359 12.9972C48.1731 12.6089 47.4013 12.4148 46.5206 12.4148C45.602 12.4148 44.7876 12.6278 44.0774 13.054C43.3767 13.4706 42.8274 14.0341 42.4297 14.7443C42.032 15.4451 41.8284 16.2263 41.8189 17.0881V20.6534C41.8189 21.733 42.0178 22.6657 42.4155 23.4517C42.8227 24.2377 43.3956 24.8438 44.1342 25.2699C44.8729 25.696 45.7488 25.9091 46.7621 25.9091C47.4344 25.9091 48.05 25.8144 48.6087 25.625C49.1674 25.4356 49.6456 25.1515 50.0433 24.7727C50.4411 24.3939 50.7441 23.9299 50.9524 23.3807L56.549 23.75C56.2649 25.0947 55.6825 26.2689 54.8018 27.2727C53.9306 28.267 52.8037 29.0436 51.4212 29.6023C50.0481 30.1515 48.4619 30.4261 46.6626 30.4261ZM70.5689 30.4261C68.3246 30.4261 66.3928 29.9716 64.7734 29.0625C63.1636 28.1439 61.9231 26.8466 61.0518 25.1705C60.1806 23.4848 59.745 21.4915 59.745 19.1903C59.745 16.946 60.1806 14.9763 61.0518 13.2812C61.9231 11.5862 63.1494 10.2652 64.7308 9.31818C66.3217 8.37121 68.1873 7.89773 70.3274 7.89773C71.7668 7.89773 73.1068 8.12973 74.3473 8.59375C75.5973 9.0483 76.6863 9.73485 77.6143 10.6534C78.5518 11.572 79.281 12.7273 79.8018 14.1193C80.3227 15.5019 80.5831 17.1212 80.5831 18.9773V20.6392H62.1598V16.8892H74.8871C74.8871 16.018 74.6977 15.2462 74.3189 14.5739C73.9401 13.9015 73.4145 13.3759 72.7422 12.9972C72.0793 12.6089 71.3075 12.4148 70.4268 12.4148C69.5083 12.4148 68.6939 12.6278 67.9837 13.054C67.2829 13.4706 66.7337 14.0341 66.3359 14.7443C65.9382 15.4451 65.7346 16.2263 65.7251 17.0881V20.6534C65.7251 21.733 65.924 22.6657 66.3217 23.4517C66.7289 24.2377 67.3018 24.8438 68.0405 25.2699C68.7791 25.696 69.6551 25.9091 70.6683 25.9091C71.3407 25.9091 71.9562 25.8144 72.5149 25.625C73.0736 25.4356 73.5518 25.1515 73.9496 24.7727C74.3473 24.3939 74.6503 23.9299 74.8587 23.3807L80.4553 23.75C80.1712 25.0947 79.5888 26.2689 78.7081 27.2727C77.8369 28.267 76.71 29.0436 75.3274 29.6023C73.9543 30.1515 72.3681 30.4261 70.5689 30.4261ZM90.5831 17.3864V30H84.532V8.18182H90.299V12.0312H90.5547C91.0376 10.7623 91.8473 9.75852 92.9837 9.01989C94.12 8.27178 95.4979 7.89773 97.1172 7.89773C98.6323 7.89773 99.9534 8.22917 101.08 8.89205C102.207 9.55492 103.083 10.5019 103.708 11.733C104.333 12.9545 104.646 14.4129 104.646 16.108V30H98.5945V17.1875C98.6039 15.8523 98.263 14.8106 97.5717 14.0625C96.8804 13.3049 95.9287 12.9261 94.7166 12.9261C93.9022 12.9261 93.1825 13.1013 92.5575 13.4517C91.942 13.8021 91.459 14.3134 91.1087 14.9858C90.7678 15.6487 90.5926 16.4489 90.5831 17.3864ZM109.528 0.90909H117.114L125.125 20.4545H125.466L133.477 0.90909H141.062V30H135.097V11.0653H134.855L127.327 29.858H123.264L115.736 10.9943H115.494V30H109.528V0.90909ZM155.96 30.4261C153.715 30.4261 151.783 29.9716 150.164 29.0625C148.554 28.1439 147.314 26.8466 146.442 25.1705C145.571 23.4848 145.136 21.4915 145.136 19.1903C145.136 16.946 145.571 14.9763 146.442 13.2812C147.314 11.5862 148.54 10.2652 150.121 9.31818C151.712 8.37121 153.578 7.89773 155.718 7.89773C157.157 7.89773 158.497 8.12973 159.738 8.59375C160.988 9.0483 162.077 9.73485 163.005 10.6534C163.942 11.572 164.672 12.7273 165.192 14.1193C165.713 15.5019 165.974 17.1212 165.974 18.9773V20.6392H147.55V16.8892H160.278C160.278 16.018 160.088 15.2462 159.71 14.5739C159.331 13.9015 158.805 13.3759 158.133 12.9972C157.47 12.6089 156.698 12.4148 155.817 12.4148C154.899 12.4148 154.085 12.6278 153.374 13.054C152.674 13.4706 152.124 14.0341 151.727 14.7443C151.329 15.4451 151.125 16.2263 151.116 17.0881V20.6534C151.116 21.733 151.315 22.6657 151.712 23.4517C152.12 24.2377 152.692 24.8438 153.431 25.2699C154.17 25.696 155.046 25.9091 156.059 25.9091C156.731 25.9091 157.347 25.8144 157.906 25.625C158.464 25.4356 158.942 25.1515 159.34 24.7727C159.738 24.3939 160.041 23.9299 160.249 23.3807L165.846 23.75C165.562 25.0947 164.979 26.2689 164.099 27.2727C163.228 28.267 162.101 29.0436 160.718 29.6023C159.345 30.1515 157.759 30.4261 155.96 30.4261ZM179.866 30.4261C177.621 30.4261 175.69 29.9716 174.07 29.0625C172.46 28.1439 171.22 26.8466 170.349 25.1705C169.478 23.4848 169.042 21.4915 169.042 19.1903C169.042 16.946 169.478 14.9763 170.349 13.2812C171.22 11.5862 172.446 10.2652 174.028 9.31818C175.619 8.37121 177.484 7.89773 179.624 7.89773C181.064 7.89773 182.404 8.12973 183.644 8.59375C184.894 9.0483 185.983 9.73485 186.911 10.6534C187.849 11.572 188.578 12.7273 189.099 14.1193C189.62 15.5019 189.88 17.1212 189.88 18.9773V20.6392H171.457V16.8892H184.184C184.184 16.018 183.995 15.2462 183.616 14.5739C183.237 13.9015 182.711 13.3759 182.039 12.9972C181.376 12.6089 180.604 12.4148 179.724 12.4148C178.805 12.4148 177.991 12.6278 177.281 13.054C176.58 13.4706 176.031 14.0341 175.633 14.7443C175.235 15.4451 175.031 16.2263 175.022 17.0881V20.6534C175.022 21.733 175.221 22.6657 175.619 23.4517C176.026 24.2377 176.599 24.8438 177.337 25.2699C178.076 25.696 178.952 25.9091 179.965 25.9091C180.638 25.9091 181.253 25.8144 181.812 25.625C182.371 25.4356 182.849 25.1515 183.246 24.7727C183.644 24.3939 183.947 23.9299 184.156 23.3807L189.752 23.75C189.468 25.0947 188.886 26.2689 188.005 27.2727C187.134 28.267 186.007 29.0436 184.624 29.6023C183.251 30.1515 181.665 30.4261 179.866 30.4261ZM199.88 17.3864V30H193.829V8.18182H199.596V12.0312H199.852C200.335 10.7623 201.144 9.75852 202.281 9.01989C203.417 8.27178 204.795 7.89773 206.414 7.89773C207.929 7.89773 209.25 8.22917 210.377 8.89205C211.504 9.55492 212.38 10.5019 213.005 11.733C213.63 12.9545 213.942 14.4129 213.942 16.108V30H207.891V17.1875C207.901 15.8523 207.56 14.8106 206.869 14.0625C206.177 13.3049 205.226 12.9261 204.013 12.9261C203.199 12.9261 202.479 13.1013 201.854 13.4517C201.239 13.8021 200.756 14.3134 200.406 14.9858C200.065 15.6487 199.889 16.4489 199.88 17.3864Z" fill="white"/>
</svg>
