<svg width="87" height="87" viewBox="0 0 87 87" fill="none" xmlns="http://www.w3.org/2000/svg">
<g clip-path="url(#clip0_2_73)">
<path d="M84.4354 17.0736C84.0064 17.1989 83.5775 17.3155 83.1487 17.4242C80.5269 18.0862 80.2859 17.2126 82.1841 15.2854C83.0341 14.4218 83.7852 13.4824 84.4375 12.4679C85.8996 10.1929 84.6314 9.2008 82.1439 10.2635C81.2566 10.6426 80.3546 10.9863 79.4401 11.2927C76.877 12.1535 73.24 10.8551 70.9562 9.40658C68.0729 7.5782 64.7962 6.66449 61.1249 6.66449C55.9823 6.66449 51.5991 8.47815 47.9726 12.1026C44.3472 15.7289 42.5335 20.1135 42.5335 25.2547C42.5335 25.9579 42.5737 26.6717 42.653 27.3955C42.7833 28.5735 40.7992 29.4276 38.1218 29.0494C32.33 28.2317 26.8273 26.4768 21.6124 23.7866C16.4406 21.1189 11.876 17.7618 7.91954 13.7153C6.02827 11.7813 3.47036 11.9479 2.76419 14.5586C2.3411 16.1236 2.13068 17.7511 2.13068 19.4416C2.13068 22.6272 2.87877 25.5818 4.37527 28.3054C5.11952 29.6607 5.99115 30.8877 6.99207 31.9856C8.67563 33.8337 8.418 34.906 6.07451 34.249C3.73199 33.5919 2.0153 32.6164 2.0153 32.6801C2.0153 32.7438 2.0153 32.7957 2.0153 32.7957C2.0153 37.2839 3.42459 41.2276 6.24494 44.6229C7.98227 46.7146 10.0006 48.3305 12.2991 49.4686C14.7229 50.6692 15.852 51.3389 14.4967 51.5142C13.679 51.62 12.8563 51.6728 12.0288 51.6728C11.4688 51.6728 10.8812 51.6474 10.2681 51.5955C9.29859 51.5133 9.12432 53.5335 10.5943 55.8037C11.7626 57.6076 13.2579 59.195 15.0796 60.5662C16.9325 61.9618 18.9294 62.9635 21.0671 63.5736C23.6682 64.315 24.1902 65.6656 21.871 67.0561C16.1322 70.4996 9.78136 72.2211 2.8194 72.2211C2.03498 72.2211 1.28673 72.2035 0.571927 72.1692C-0.668864 72.1095 0.163557 73.2023 2.55889 74.4569C10.0438 78.3772 18.1496 80.3357 26.8774 80.3357C33.4761 80.3357 39.6732 79.2909 45.4678 77.1999C51.2603 75.1091 56.2108 72.3072 60.3161 68.7963C64.4214 65.2855 67.9617 61.2477 70.9358 56.6811C73.9092 52.1146 76.1243 47.3472 77.5835 42.3792C79.0407 37.4101 79.7703 32.4313 79.7703 27.4427C79.7703 26.9932 79.7665 26.5896 79.7596 26.2342C79.7459 25.5663 81.5126 23.7584 83.4849 21.9086C84.3751 21.0733 85.2241 20.1967 86.0351 19.2772C87.824 17.2469 87.0317 16.3165 84.4354 17.0736Z" fill="white"/>
</g>
<defs>
<clipPath id="clip0_2_73">
<rect width="87" height="87" fill="white"/>
</clipPath>
</defs>
</svg>
