<svg width="97" height="97" viewBox="0 0 97 97" fill="none" xmlns="http://www.w3.org/2000/svg">
<path d="M93.2192 20.2276C89.7178 16.0654 83.2532 14.3676 70.9073 14.3676H26.0917C13.4633 14.3676 6.88919 16.1749 3.40095 20.6062C0 24.9268 0 31.2928 0 40.1036V56.8968C0 73.9659 4.0352 82.6324 26.0917 82.6324H70.9076C81.6139 82.6324 87.5466 81.1343 91.3846 77.4611C95.3206 73.6944 97 67.5442 97 56.8968V40.1036C97 30.8119 96.7368 24.4083 93.2192 20.2276ZM62.2743 50.8186L41.9237 61.4545C41.4688 61.6923 40.9712 61.8103 40.4743 61.8103C39.9117 61.8103 39.3504 61.6588 38.8532 61.3578C37.917 60.7905 37.3453 59.7758 37.3453 58.6813V37.4777C37.3453 36.385 37.9154 35.3712 38.8498 34.8036C39.7844 34.236 40.9468 34.1972 41.9165 34.701L62.2671 45.2683C63.3025 45.8059 63.9527 46.8748 63.9543 48.041C63.9555 49.2081 63.3081 50.2785 62.2743 50.8186Z" fill="white"/>
</svg>
